# xmcd
# 
# Track frame offsets:
#     150
#     13212
#     28672
#     44120
#     60542
#     75702
#     92120
#     103805
#     116467
#     131040
# 
# Disc length: 1945
# 
# Revision: 8
# Processed by: cddbd v1.5.2PL0 Copyright (c) Steve Scherf et al.
# Submitted via: fre:ac v1.0.17
# 
DISCID=8807970a
DTITLE=Mark Chesnutt - Thank God For Believers
DYEAR=1997
DGENRE=Country
TTITLE0=Goodbye Heartache
TTITLE1=Thank God  For Believers
TTITLE2=Wherever You Are
TTITLE3=I Might Even Quit Lovin' You
TTITLE4=Numbers On The Jukebox
TTITLE5=That Side Of You
TTITLE6=Useless
TTITLE7=Hello Honky Tonk
TTITLE8=Any Ole Reason
TTITLE9=It's Not Over (Featuring Vince Gill and Alison Krauss)
EXTD=
EXTT0=\n
EXTT1=
EXTT2=
EXTT3=
EXTT4=
EXTT5=
EXTT6=
EXTT7=
EXTT8=
EXTT9=
PLAYORDER=
